<svg width="190" height="41" viewBox="0 0 190 41" fill="none" xmlns="http://www.w3.org/2000/svg">
<path d="M80.7119 16.1992H84.7617C87.1784 16.1992 88.3867 15.1042 88.3867 12.9141C88.3867 11.9701 88.0658 11.2243 87.4238 10.6768C86.7819 10.1292 85.8851 9.85547 84.7334 9.85547H80.7119V16.1992ZM76.0107 29V5.80566H85.6113C88.0658 5.80566 89.9538 6.43815 91.2754 7.70312C92.597 8.9681 93.2578 10.5729 93.2578 12.5176C93.2578 14.1035 92.9368 15.3874 92.2949 16.3691C91.653 17.332 90.8978 18.0117 90.0293 18.4082C90.6901 18.9368 91.1527 19.4561 91.417 19.9658C91.7002 20.4756 91.9362 21.3063 92.125 22.458C92.5404 24.5726 93.4277 26.7533 94.7871 29H89.5195C88.4434 27.2441 87.6693 25.1768 87.1973 22.7979C87.0085 21.8916 86.7441 21.2308 86.4043 20.8154C86.0645 20.4001 85.5358 20.1924 84.8184 20.1924H80.7119V29H76.0107ZM100.423 20.4756C100.423 22.3447 100.772 23.6758 101.471 24.4688C102.169 25.2617 102.943 25.6582 103.793 25.6582C104.152 25.6582 104.501 25.5827 104.841 25.4316C105.2 25.2617 105.558 25.0068 105.917 24.667C106.276 24.3083 106.568 23.7702 106.795 23.0527C107.021 22.3164 107.135 21.4574 107.135 20.4756C107.135 19.4749 107.021 18.6159 106.795 17.8984C106.587 17.181 106.295 16.6429 105.917 16.2842C105.558 15.9255 105.2 15.6706 104.841 15.5195C104.501 15.3685 104.152 15.293 103.793 15.293C102.943 15.293 102.169 15.6895 101.471 16.4824C100.772 17.2565 100.423 18.5876 100.423 20.4756ZM95.7783 20.4756C95.7783 19.305 95.9294 18.2005 96.2314 17.1621C96.5335 16.1048 96.9867 15.1419 97.5908 14.2734C98.2139 13.4049 99.054 12.7158 100.111 12.2061C101.188 11.6963 102.415 11.4414 103.793 11.4414C105.171 11.4414 106.389 11.6963 107.446 12.2061C108.504 12.7158 109.334 13.4049 109.938 14.2734C110.562 15.1419 111.024 16.1048 111.326 17.1621C111.628 18.2005 111.779 19.305 111.779 20.4756C111.779 21.2308 111.713 21.986 111.581 22.7412C111.449 23.4775 111.194 24.2705 110.816 25.1201C110.458 25.9508 109.995 26.6872 109.429 27.3291C108.862 27.9521 108.088 28.4714 107.106 28.8867C106.144 29.3021 105.039 29.5098 103.793 29.5098C102.566 29.5098 101.471 29.3115 100.508 28.915C99.5449 28.5186 98.7708 28.0182 98.1855 27.4141C97.6003 26.791 97.1188 26.0736 96.7412 25.2617C96.3825 24.431 96.1276 23.6286 95.9766 22.8545C95.8444 22.0804 95.7783 21.2874 95.7783 20.4756ZM118.066 23.959C118.066 24.4688 118.265 24.903 118.661 25.2617C119.058 25.6016 119.567 25.7715 120.19 25.7715C121.191 25.7715 122.041 25.4316 122.739 24.752C123.438 24.0723 123.787 23.166 123.787 22.0332V20.9004C122.692 21.1647 121.824 21.3441 121.182 21.4385C119.105 21.7406 118.066 22.5807 118.066 23.959ZM113.479 24.3555C113.479 22.8073 114.073 21.5234 115.263 20.5039C116.452 19.4844 118.199 18.8047 120.502 18.4648C122.39 18.1628 123.485 17.9645 123.787 17.8701V16.9922C123.787 16.2936 123.542 15.7839 123.051 15.4629C122.579 15.123 121.956 14.9531 121.182 14.9531C119.407 14.9531 117.878 15.6517 116.594 17.0488L113.932 14.7549C115.782 12.5459 118.18 11.4414 121.125 11.4414C123.73 11.4414 125.581 12.0645 126.676 13.3105C127.771 14.5566 128.318 16.3219 128.318 18.6064V29H123.929V27.2441C123.589 27.8861 123.022 28.4242 122.229 28.8584C121.437 29.2926 120.53 29.5098 119.511 29.5098C117.66 29.5098 116.188 29.0378 115.093 28.0938C114.017 27.1309 113.479 25.8848 113.479 24.3555ZM130.697 20.4473C130.697 17.6341 131.377 15.4346 132.736 13.8486C134.115 12.2438 135.88 11.4414 138.032 11.4414C139.618 11.4414 140.893 12.0267 141.855 13.1973V5.09766H146.358V29H141.969V27.3008C141.629 27.8861 141.091 28.4053 140.354 28.8584C139.618 29.2926 138.835 29.5098 138.004 29.5098C137.098 29.5098 136.22 29.3398 135.37 29C134.539 28.6602 133.765 28.1504 133.048 27.4707C132.33 26.791 131.755 25.847 131.32 24.6387C130.905 23.4303 130.697 22.0332 130.697 20.4473ZM135.342 20.4473C135.342 22.1276 135.634 23.4209 136.22 24.3271C136.824 25.2145 137.636 25.6582 138.655 25.6582C139.656 25.6582 140.439 25.1956 141.006 24.2705C141.591 23.3454 141.884 22.071 141.884 20.4473C141.884 18.8991 141.61 17.653 141.062 16.709C140.515 15.765 139.713 15.293 138.655 15.293C137.56 15.293 136.729 15.765 136.163 16.709C135.616 17.6341 135.342 18.8802 135.342 20.4473ZM150.182 10.1387V5.49414H154.741V10.1387H150.182ZM150.238 29V11.9512H154.713V29H150.238ZM157.29 29V26.0264L165.418 15.7744H157.913V11.9512H171.337V14.7549L163.124 25.1484H171.733V29H157.29ZM173.206 20.4189C173.206 17.6436 173.98 15.4535 175.528 13.8486C177.076 12.2438 178.993 11.4414 181.277 11.4414C183.486 11.4414 185.355 12.2721 186.885 13.9336C188.433 15.5762 189.207 17.738 189.207 20.4189C189.207 20.9665 189.179 21.514 189.122 22.0615H177.794C177.794 23.1377 178.134 24.0534 178.813 24.8086C179.493 25.5449 180.409 25.9131 181.561 25.9131C182.41 25.9131 183.146 25.7054 183.77 25.29C184.411 24.8558 184.893 24.3083 185.214 23.6475L188.98 24.9785C188.414 26.2435 187.489 27.3197 186.205 28.207C184.921 29.0755 183.326 29.5098 181.419 29.5098C179.021 29.5098 177.048 28.6885 175.5 27.0459C173.971 25.4033 173.206 23.1943 173.206 20.4189ZM177.822 18.9746H184.591C184.591 17.8796 184.298 16.945 183.713 16.1709C183.146 15.3779 182.335 14.9814 181.277 14.9814C180.201 14.9814 179.352 15.3779 178.729 16.1709C178.124 16.9639 177.822 17.8984 177.822 18.9746Z" fill="black"/>
<path d="M68.7393 27.179L63.6565 21.8904C63.4779 21.7045 63.2302 21.6001 62.9713 21.6001H60.7609L60.7611 21.5969V20.3794C60.7611 19.7845 60.2739 19.3014 59.6731 19.3014C59.0719 19.3014 58.5852 19.7845 58.5852 20.3794V21.5969L58.5853 21.6001H44.2996V18.1103L59.3553 3.19912C60.0942 2.46743 60.0942 1.28074 59.3553 0.548887C58.6165 -0.182962 57.4183 -0.182962 56.6793 0.548887L41.4376 15.6444H39.0017V21.6001H36.9651V5.33746C36.9651 4.81936 36.5413 4.39996 36.019 4.39996H34.8195V3.79112C34.8195 3.1961 34.3322 2.71408 33.7315 2.71408C33.1303 2.71408 32.6436 3.1961 32.6436 3.79112V4.39996H24.2575C23.9875 4.39996 23.7297 4.51518 23.5503 4.71479L14.5216 14.7731H9.58876C9.50307 14.7703 9.41818 14.7695 9.33474 14.7695C4.66039 14.7695 2.79578 18.1608 2.44709 20.005L2.18265 20.8956H1.15358C0.516377 20.8956 0 21.4076 0 22.0381V27.6194C0 28.1046 0.306328 28.5186 0.737658 28.684C0.854316 28.7337 0.980923 28.7619 1.11138 28.7619H4.11128C4.37075 32.2444 7.31272 35 10.8945 35C14.4759 35 17.4178 32.2444 17.6773 28.7619H49.5407C49.8 32.2444 52.742 35 56.3236 35C59.9053 35 62.8473 32.2444 63.1066 28.7619H68.0541C68.4326 28.7619 68.7746 28.5381 68.9235 28.1942C69.0725 27.8493 69 27.4498 68.7393 27.179ZM10.8945 31.643C9.01172 31.643 7.48008 30.1263 7.48008 28.2619C7.48008 26.3976 9.01172 24.8808 10.8945 24.8808C12.7769 24.8808 14.3084 26.3976 14.3084 28.2619C14.3084 30.1263 12.7769 31.643 10.8945 31.643ZM32.7134 14.1452H21.4146L26.9389 7.77346H32.7134V14.1452ZM56.3234 31.643C54.4408 31.643 52.9095 30.1263 52.9095 28.2619C52.9095 26.3976 54.441 24.8808 56.3234 24.8808C58.2062 24.8808 59.7378 26.3976 59.7378 28.2619C59.7378 30.1263 58.2062 31.643 56.3234 31.643Z" fill="black"/>
</svg>
