<svg width="48" height="48" viewBox="0 0 48 48" fill="none" xmlns="http://www.w3.org/2000/svg">
<g clip-path="url(#clip0_237_706)">
<path d="M40.9614 31.0121C38.3489 28.3997 35.2392 26.4656 31.8464 25.2949C35.4802 22.7921 37.8676 18.6036 37.8676 13.8672C37.8676 6.22088 31.6467 0 24.0004 0C16.354 0 10.1331 6.22088 10.1331 13.8672C10.1331 18.6035 12.5205 22.792 16.1543 25.2949C12.7615 26.4655 9.65192 28.3995 7.0393 31.0121C2.50873 35.5427 0.0136719 41.5662 0.0136719 47.9733H3.76161C3.76161 37.5799 11.6372 28.9927 21.7338 27.8622L18.1782 42.1772L24.0004 48L29.822 42.1771L26.2668 27.8621C36.3634 28.9927 44.2389 37.5799 44.2389 47.9733H47.9869C47.9869 41.5661 45.4918 35.5426 40.9614 31.0121ZM24.0002 42.6993L22.3262 41.025L24.0002 34.2851L25.674 41.025L24.0002 42.6993ZM24.0003 23.9867C18.4204 23.9867 13.8809 19.4471 13.8809 13.8674C13.8809 8.28759 18.4204 3.74803 24.0003 3.74803C29.5802 3.74803 34.1196 8.2875 34.1196 13.8673C34.1196 19.4471 29.5802 23.9867 24.0003 23.9867Z" fill="#FED231"/>
</g>
<defs>
<clipPath id="clip0_237_706">
<rect width="48" height="48" fill="white"/>
</clipPath>
</defs>
</svg>
