<svg width="48" height="48" viewBox="0 0 48 48" fill="none" xmlns="http://www.w3.org/2000/svg">
<path d="M36.4688 3.75H29.3976C28.6234 1.56738 26.5382 0 24.0938 0C21.6493 0 19.5641 1.56738 18.7899 3.75H11.625C8.52319 3.75 6 6.27319 6 9.375V42.375C6 45.4768 8.52319 48 11.625 48H36.4746C39.5731 47.9967 42.0938 45.4629 42.0938 42.3512V9.375C42.0938 6.27319 39.5706 3.75 36.4688 3.75ZM22.2188 7.5V5.625C22.2188 4.59119 23.0599 3.75 24.0938 3.75C25.1276 3.75 25.9688 4.59119 25.9688 5.625V7.5H29.7188V11.1562H18.4688V7.5H22.2188ZM38.3438 42.3512C38.3438 43.3971 37.5033 44.2489 36.4728 44.25H11.625C10.5912 44.25 9.75 43.4088 9.75 42.375V9.375C9.75 8.34119 10.5912 7.5 11.625 7.5H14.7188V14.9062H33.4688V7.5H36.4688C37.5026 7.5 38.3438 8.34119 38.3438 9.375V42.3512ZM13.5 18.6562H34.5938V22.4062H13.5V18.6562ZM13.5 26.1562H34.5938V29.9062H13.5V26.1562ZM13.5 33.6562H19.125V37.4062H13.5V33.6562ZM31.868 32.5115L34.507 35.176L27.3538 42.2607L22.3414 37.5542L24.9086 34.8208L27.2842 37.0514L31.868 32.5115Z" fill="#FED231"/>
</svg>
