<svg width="64" height="64" viewBox="0 0 64 64" fill="none" xmlns="http://www.w3.org/2000/svg">
<g clip-path="url(#clip0_237_623)">
<path d="M48.3337 16.3335H15.667C12.91 16.3335 10.667 18.5765 10.667 21.3335V42.6668C10.667 45.4238 12.91 47.6668 15.667 47.6668H48.3337C51.0907 47.6668 53.3337 45.4238 53.3337 42.6668V21.3335C53.3337 18.5765 51.0907 16.3335 48.3337 16.3335ZM50.0003 42.6668C50.0003 43.5858 49.2527 44.3335 48.3337 44.3335H15.667C14.748 44.3335 14.0003 43.5858 14.0003 42.6668V28.5002H50.0003V42.6668ZM50.0003 23.5002H14.0003V21.3335C14.0003 20.4145 14.748 19.6668 15.667 19.6668H48.3337C49.2527 19.6668 50.0003 20.4145 50.0003 21.3335V23.5002Z" fill="#FED231"/>
<path d="M38.334 31H16.334V34.3333H38.334V31Z" fill="#FED231"/>
</g>
<defs>
<clipPath id="clip0_237_623">
<rect width="42.6667" height="42.6667" fill="white" transform="translate(10.667 10.6667)"/>
</clipPath>
</defs>
</svg>
