<svg width="48" height="48" viewBox="0 0 48 48" fill="none" xmlns="http://www.w3.org/2000/svg">
<g clip-path="url(#clip0_243_25)">
<path d="M48 30.6562V11.25H41.3364C42.5544 10.058 43.3125 8.39722 43.3125 6.5625C43.3125 2.94397 40.3685 0 36.75 0C33.1315 0 30.1875 2.94397 30.1875 6.5625C30.1875 8.39722 30.9456 10.058 32.1636 11.25H15.9302C17.1482 10.058 17.9062 8.39722 17.9062 6.5625C17.9062 2.94397 14.9623 0 11.3438 0C7.72522 0 4.78125 2.94397 4.78125 6.5625C4.78125 8.39722 5.53931 10.058 6.75732 11.25H0V30.6562H3.75V44.25H0V48H11.25V44.25H7.5V30.6562H40.5V44.25H36.75V48H48V44.25H44.25V30.6562H48ZM36.75 3.75C38.3009 3.75 39.5625 5.0116 39.5625 6.5625C39.5625 8.1134 38.3009 9.375 36.75 9.375C35.1991 9.375 33.9375 8.1134 33.9375 6.5625C33.9375 5.0116 35.1991 3.75 36.75 3.75ZM11.3438 3.75C12.8947 3.75 14.1562 5.0116 14.1562 6.5625C14.1562 8.1134 12.8947 9.375 11.3438 9.375C9.79285 9.375 8.53125 8.1134 8.53125 6.5625C8.53125 5.0116 9.79285 3.75 11.3438 3.75ZM37.6674 26.9062L44.25 20.3236V26.9062H37.6674ZM44.25 15.0201L32.3639 26.9062H26.558L38.4642 15H44.25V15.0201ZM26.933 15H33.1608L21.2545 26.9062H15.0267L26.933 15ZM9.72327 26.9062H3.77673L15.683 15H21.6295L9.72327 26.9062ZM10.3795 15L3.75 21.6295V15H10.3795Z" fill="#FED231"/>
</g>
<defs>
<clipPath id="clip0_243_25">
<rect width="48" height="48" fill="white"/>
</clipPath>
</defs>
</svg>
