<svg width="48" height="48" viewBox="0 0 48 48" fill="none" xmlns="http://www.w3.org/2000/svg">
<path fill-rule="evenodd" clip-rule="evenodd" d="M4.04138 40.2626H0V36.5251H4.04138C4.81519 34.3498 6.89929 32.7877 9.34375 32.7877C11.7882 32.7877 13.8723 34.3498 14.6461 36.5251H16.375C17.4088 36.5251 18.25 35.6868 18.25 34.6564V28.3021L0 28.2954V7C0.884766 5.05793 2.84914 4 5.125 4H18.25V10.0065C18.25 11.7731 17.1982 13.414 15.5708 14.1867C14.8695 14.5196 14.4509 15.236 14.5048 16.0123C14.5674 16.9186 15.3287 17.6774 16.238 17.7398C16.7672 17.7767 17.27 17.5996 17.6538 17.2423C18.0383 16.8846 18.25 16.3992 18.25 15.8758H22C22 17.4237 21.3485 18.918 20.2125 19.9746C19.0773 21.0305 17.5337 21.5747 15.9802 21.4681C13.1981 21.2769 10.9554 19.0421 10.7635 16.2693C10.6035 13.9516 11.8571 11.8099 13.958 10.8124C14.2924 10.6536 14.5 10.3449 14.5 10.0065V7.73743H5.125C4.09119 7.73743 3.25 8.5758 3.25 9.60615V24.5588L22 24.5657V34.6564C22 37.7475 19.4768 40.2626 16.375 40.2626H14.6461C13.8723 42.4375 11.7882 44 9.34375 44C6.89929 44 4.81519 42.4375 4.04138 40.2626ZM9.34375 40.2626C10.3776 40.2626 11.2188 39.4242 11.2188 38.3939C11.2188 37.3631 10.3776 36.5251 9.34375 36.5251C8.30994 36.5251 7.46875 37.3631 7.46875 38.3939C7.46875 39.4242 8.30994 40.2626 9.34375 40.2626Z" fill="#FED231"/>
<path fill-rule="evenodd" clip-rule="evenodd" d="M46.2502 12.662L48 13.677V25.8334L34.1401 17.7934C32.7079 17.3015 30.2982 16.5144 28.4511 16.1177C28.1015 16.0426 27.7446 16.2047 27.5628 16.5212L24.9782 21.0191L27.7172 22.608C29.085 21.4353 31.0954 21.189 32.7394 22.1426C34.3834 23.0963 35.1763 24.9688 34.8494 26.7453L42.6604 31.2764C44.0281 30.1037 46.0385 29.8574 47.6825 30.811C47.7921 30.8746 47.898 30.9423 48 31.0138V38.2087C46.6526 39.152 44.8281 39.2913 43.3142 38.4131C41.6702 37.4594 40.8773 35.587 41.2043 33.8104L33.3933 29.2794C32.0255 30.4521 30.0151 30.6984 28.3711 29.7447C26.7271 28.7911 25.9341 26.9186 26.2611 25.142L21 22.0901L25.0407 15.0582C25.856 13.6393 27.4712 12.9149 29.06 13.2562C31.1553 13.7061 35.7875 15.2694 35.7875 15.2694L41.6898 12.473C43.1483 11.7812 44.8532 11.8516 46.2502 12.662ZM42.9326 15.1192L38.7616 17.0956L45.2472 20.8579L47.5739 16.8089L44.794 15.1963C44.2238 14.8655 43.5284 14.8367 42.9326 15.1192ZM44.7703 35.8791C45.4656 36.2824 46.358 36.0422 46.7594 35.3436C47.1609 34.645 46.9218 33.7484 46.2265 33.3451C45.5312 32.9417 44.6388 33.182 44.2374 33.8806C43.8359 34.5791 44.0751 35.4757 44.7703 35.8791ZM29.8272 27.2107C30.5225 27.614 31.4148 27.3738 31.8163 26.6752C32.2177 25.9766 31.9786 25.08 31.2833 24.6767C30.588 24.2733 29.6956 24.5136 29.2942 25.2122C28.8928 25.9107 29.1319 26.8074 29.8272 27.2107Z" fill="#FED231"/>
</svg>
