<svg width="48" height="48" viewBox="0 0 48 48" fill="none" xmlns="http://www.w3.org/2000/svg">
<path d="M48 27.4874C48 25.8673 47.4624 24.2629 46.4865 22.9695L41.2471 16.0269C40.1898 14.6265 38.5115 13.7908 36.757 13.7908H29.25V24.5632L25.5 24.5643V9.5625C25.5 6.46069 22.9768 3.9375 19.875 3.9375H3.75V9.96423C3.75 11.7367 4.80176 13.3832 6.4292 14.1584C7.13049 14.4924 7.54907 15.2113 7.49524 15.9902C7.43262 16.8995 6.67126 17.6609 5.76196 17.7235C5.23279 17.7605 4.72998 17.5829 4.34619 17.2244C3.96167 16.8655 3.75 16.3784 3.75 15.8533H0C0 17.4064 0.651489 18.9056 1.78748 19.9658C2.92273 21.0253 4.46631 21.5713 6.01978 21.4644C8.80188 21.2725 11.0446 19.0302 11.2365 16.248C11.3965 13.9226 10.1429 11.7737 8.04199 10.7728C7.70764 10.6135 7.5 10.3037 7.5 9.96423V7.6875H19.875C20.9088 7.6875 21.75 8.52869 21.75 9.5625V24.5654L0 24.5724V34.697C0 37.7985 2.52319 40.322 5.625 40.322H7.35388C8.12769 42.5043 10.2118 44.072 12.6562 44.072C15.1007 44.072 17.1848 42.5043 17.9586 40.322H29.5726C30.3464 42.5043 32.4305 44.072 34.875 44.072C37.3195 44.072 39.4036 42.5043 40.1774 40.322H48V27.4874ZM36.757 17.5408C37.3418 17.5408 37.9014 17.8195 38.2537 18.286L42.9976 24.572H33V17.5408H36.757ZM3.75 34.697V28.3213L29.25 28.3132V36.572H17.9586C17.1848 34.3894 15.1007 32.822 12.6562 32.822C10.2118 32.822 8.12769 34.3894 7.35388 36.572H5.625C4.59119 36.572 3.75 35.7308 3.75 34.697ZM12.6562 40.322C11.6224 40.322 10.7812 39.4808 10.7812 38.447C10.7812 37.4128 11.6224 36.572 12.6562 36.572C13.6901 36.572 14.5312 37.4128 14.5312 38.447C14.5312 39.4808 13.6901 40.322 12.6562 40.322ZM34.875 40.322C33.8412 40.322 33 39.4808 33 38.447C33 37.4128 33.8412 36.572 34.875 36.572C35.9088 36.572 36.75 37.4128 36.75 38.447C36.75 39.4808 35.9088 40.322 34.875 40.322ZM40.1774 36.572C39.4036 34.3894 37.3195 32.822 34.875 32.822C34.2177 32.822 33.587 32.9363 33 33.1443V28.322H44.25V36.572H40.1774Z" fill="#FED231"/>
</svg>
