<svg width="48" height="48" viewBox="0 0 48 48" fill="none" xmlns="http://www.w3.org/2000/svg">
<path d="M19.875 7.97827H0V4.22827H19.875V7.97827ZM16.125 11.7283H0V15.4783H16.125V11.7283ZM12.375 19.2283H0V22.9783H12.375V19.2283ZM48 40.1345H40.1774C39.4036 42.3168 37.3195 43.8845 34.875 43.8845C32.4305 43.8845 30.3464 42.3168 29.5726 40.1345H17.9586C17.1848 42.3168 15.1007 43.8845 12.6562 43.8845C10.2118 43.8845 8.12769 42.3168 7.35388 40.1345H5.625C2.52319 40.1345 0 37.611 0 34.5095V26.7283H3.75V34.5095C3.75 35.5433 4.59119 36.3845 5.625 36.3845H7.35388C8.12769 34.2019 10.2118 32.6345 12.6562 32.6345C15.1007 32.6345 17.1848 34.2019 17.9586 36.3845H29.25V9.84375C29.25 8.80994 28.4088 7.96875 27.375 7.96875H23.625V4.21875H27.375C30.4768 4.21875 33 6.74194 33 9.84375V13.6033H36.757C38.5115 13.6033 40.1902 14.4393 41.2471 15.8397L46.4865 22.782C47.4624 24.0751 48 25.6798 48 27.2999V40.1345ZM33 17.3533V24.3845H42.9976L38.2537 18.0985C37.9014 17.6316 37.3418 17.3533 36.757 17.3533H33ZM14.5312 38.2595C14.5312 37.2253 13.6901 36.3845 12.6562 36.3845C11.6224 36.3845 10.7812 37.2253 10.7812 38.2595C10.7812 39.2933 11.6224 40.1345 12.6562 40.1345C13.6901 40.1345 14.5312 39.2933 14.5312 38.2595ZM36.75 38.2595C36.75 37.2253 35.9088 36.3845 34.875 36.3845C33.8412 36.3845 33 37.2253 33 38.2595C33 39.2933 33.8412 40.1345 34.875 40.1345C35.9088 40.1345 36.75 39.2933 36.75 38.2595ZM44.25 36.3845V28.1345H33V32.9568C33.587 32.7488 34.2177 32.6345 34.875 32.6345C37.3195 32.6345 39.4036 34.2019 40.1774 36.3845H44.25Z" fill="#FED231"/>
</svg>
