<svg width="48" height="48" viewBox="0 0 48 48" fill="none" xmlns="http://www.w3.org/2000/svg">
<g clip-path="url(#clip0_248_264)">
<path d="M31.6575 24.0001L31.9029 23.7547C33.1608 24.1834 34.4665 24.4 35.7999 24.4C42.527 24.4 47.9999 18.9271 47.9999 12.2C47.9999 10.4369 47.6145 8.71547 46.8544 7.08337L45.7262 4.66106L38.9354 11.4189C38.6213 11.7332 38.2034 11.9062 37.7587 11.9062C37.3139 11.9062 36.8961 11.7331 36.5814 11.4185C36.2669 11.104 36.0937 10.6859 36.0937 10.2413C36.0937 9.79659 36.2669 9.37847 36.5848 9.06056L43.3389 2.27353L40.9164 1.14534C39.2844 0.385312 37.563 0 35.8 0C29.0729 0 23.6001 5.47284 23.6001 12.2C23.6001 13.5335 23.8167 14.8392 24.2453 16.097L21.4971 18.8453L14.625 11.9734V5.79544L5.09334 0.0765L0.0765 5.09325L5.79562 14.625H11.9734L18.8453 21.497L1.58644 38.7559C0.563438 39.7787 0 41.1385 0 42.5849C0 44.0315 0.563438 45.3913 1.58597 46.4136C2.6085 47.4366 3.96834 47.9999 5.415 47.9999C6.86166 47.9999 8.2215 47.4366 9.24366 46.4139L23.9997 31.6578L38.7556 46.4136C39.7786 47.4366 41.1384 48 42.5849 48C44.0313 48 45.3912 47.4366 46.4136 46.4139C47.4365 45.3915 47.9998 44.0317 47.9998 42.585C47.9998 41.1382 47.4365 39.7783 46.4138 38.7563L31.6575 24.0001ZM10.875 10.875H7.91878L4.79859 5.67459L5.67469 4.79841L10.875 7.91878V10.875ZM6.59184 43.7626C6.27769 44.0769 5.85984 44.2499 5.41509 44.2499C4.97034 44.2499 4.5525 44.0768 4.23787 43.7621C3.92334 43.4476 3.75 43.0296 3.75 42.5849C3.75 42.1403 3.92325 41.7222 4.23797 41.4076L28.6989 16.9465L28.1449 15.757C27.6174 14.6245 27.35 13.4277 27.35 12.2C27.35 7.54069 31.1407 3.75 35.7999 3.75C36.0495 3.75 36.2981 3.76134 36.5455 3.78394L33.9302 6.41203C32.9072 7.43494 32.3438 8.79478 32.3438 10.2413C32.3438 11.6877 32.9072 13.0476 33.9297 14.0699C34.9522 15.0929 36.312 15.6562 37.7588 15.6562C39.2054 15.6562 40.5653 15.0929 41.5842 14.0735L44.216 11.4544C44.2386 11.7017 44.2499 11.9503 44.2499 12.1999C44.2499 16.8593 40.4592 20.6499 35.7999 20.6499C34.5722 20.6499 33.3755 20.3825 32.2429 19.855L31.0534 19.301L6.59184 43.7626ZM43.7621 43.7622C43.4477 44.0767 43.0296 44.25 42.5849 44.25C42.1403 44.25 41.7221 44.0768 41.4075 43.762L26.6516 29.0061L29.0061 26.6517L43.7625 41.4082C44.0767 41.7224 44.2498 42.1402 44.2498 42.585C44.2498 43.0297 44.0768 43.4476 43.7621 43.7622Z" fill="#FED231"/>
</g>
<defs>
<clipPath id="clip0_248_264">
<rect width="48" height="48" fill="white"/>
</clipPath>
</defs>
</svg>
